<svg width="180" height="79" viewBox="0 0 180 79" fill="none" xmlns="http://www.w3.org/2000/svg">
<mask id="path-1-outside-1_118_60" maskUnits="userSpaceOnUse" x="1" y="27" width="178" height="35" fill="black">
<rect fill="white" x="1" y="27" width="178" height="35"/>
<path d="M13.184 52L5.664 31.968H5.536C5.57867 32.3947 5.61067 32.9387 5.632 33.6C5.67467 34.2613 5.70667 34.9867 5.728 35.776C5.74933 36.544 5.76 37.3333 5.76 38.144V52H3.104V29.152H7.36L14.4 47.872H14.528L21.696 29.152H25.92V52H23.072V37.952C23.072 37.2053 23.0827 36.4693 23.104 35.744C23.1253 34.9973 23.1573 34.304 23.2 33.664C23.2427 33.0027 23.2747 32.448 23.296 32H23.168L15.552 52H13.184ZM32.2633 34.848H35.2713L38.9833 44.608C39.1966 45.184 39.3886 45.7387 39.5593 46.272C39.7513 46.8053 39.9219 47.328 40.0713 47.84C40.2206 48.3307 40.3379 48.8107 40.4233 49.28H40.5513C40.6793 48.7467 40.8819 48.0533 41.1593 47.2C41.4366 46.3253 41.7246 45.4507 42.0233 44.576L45.5113 34.848H48.5513L41.1593 54.368C40.7539 55.4347 40.2739 56.3627 39.7193 57.152C39.1859 57.9627 38.5246 58.5813 37.7353 59.008C36.9673 59.456 36.0286 59.68 34.9193 59.68C34.4073 59.68 33.9593 59.648 33.5753 59.584C33.1913 59.5413 32.8606 59.488 32.5833 59.424V57.184C32.8179 57.2267 33.0953 57.2693 33.4153 57.312C33.7566 57.3547 34.1086 57.376 34.4713 57.376C35.1326 57.376 35.6979 57.248 36.1673 56.992C36.6579 56.7573 37.0739 56.4053 37.4153 55.936C37.7566 55.488 38.0446 54.9547 38.2793 54.336L39.1753 52.064L32.2633 34.848ZM57.7278 52H54.8478V29.152H67.6158V31.68H57.7278V39.776H67.0078V42.304H57.7278V52ZM88.5935 34.848V52H86.2895L85.8735 49.728H85.7455C85.3828 50.3253 84.9135 50.816 84.3375 51.2C83.7615 51.584 83.1322 51.8613 82.4495 52.032C81.7668 52.224 81.0522 52.32 80.3055 52.32C78.9402 52.32 77.7882 52.1067 76.8495 51.68C75.9322 51.232 75.2388 50.5493 74.7695 49.632C74.3002 48.7147 74.0655 47.5307 74.0655 46.08V34.848H76.9135V45.888C76.9135 47.2533 77.2228 48.2773 77.8415 48.96C78.4602 49.6427 79.4202 49.984 80.7215 49.984C82.0015 49.984 83.0042 49.7493 83.7295 49.28C84.4762 48.7893 84.9988 48.0853 85.2975 47.168C85.6175 46.2293 85.7775 45.0987 85.7775 43.776V34.848H88.5935ZM108.407 47.264C108.407 48.3733 108.129 49.3013 107.575 50.048C107.02 50.7947 106.231 51.36 105.207 51.744C104.183 52.128 102.967 52.32 101.559 52.32C100.364 52.32 99.3294 52.224 98.4548 52.032C97.6014 51.84 96.8441 51.5733 96.1828 51.232V48.672C96.8654 49.0133 97.6868 49.3333 98.6468 49.632C99.6281 49.9093 100.62 50.048 101.623 50.048C103.052 50.048 104.087 49.824 104.727 49.376C105.367 48.9067 105.687 48.288 105.687 47.52C105.687 47.0933 105.569 46.7093 105.335 46.368C105.1 46.0267 104.673 45.6853 104.055 45.344C103.457 45.0027 102.593 44.6187 101.463 44.192C100.353 43.7653 99.4041 43.3387 98.6148 42.912C97.8254 42.4853 97.2174 41.9733 96.7908 41.376C96.3641 40.7787 96.1508 40.0107 96.1508 39.072C96.1508 37.6213 96.7374 36.5013 97.9108 35.712C99.1054 34.9227 100.663 34.528 102.583 34.528C103.628 34.528 104.599 34.6347 105.495 34.848C106.412 35.04 107.265 35.3173 108.055 35.68L107.095 37.92C106.625 37.7067 106.124 37.5253 105.591 37.376C105.079 37.2053 104.556 37.0773 104.023 36.992C103.489 36.8853 102.945 36.832 102.391 36.832C101.239 36.832 100.353 37.024 99.7348 37.408C99.1374 37.7707 98.8388 38.272 98.8388 38.912C98.8388 39.3813 98.9774 39.7867 99.2548 40.128C99.5321 40.448 99.9908 40.768 100.631 41.088C101.292 41.3867 102.167 41.7493 103.255 42.176C104.343 42.5813 105.271 42.9973 106.039 43.424C106.807 43.8507 107.393 44.3733 107.799 44.992C108.204 45.5893 108.407 46.3467 108.407 47.264ZM122.375 34.528C123.847 34.528 125.106 34.848 126.151 35.488C127.218 36.128 128.029 37.0347 128.583 38.208C129.159 39.36 129.447 40.7147 129.447 42.272V43.968H117.703C117.746 45.9093 118.237 47.392 119.175 48.416C120.135 49.4187 121.469 49.92 123.175 49.92C124.263 49.92 125.223 49.824 126.055 49.632C126.909 49.4187 127.783 49.12 128.679 48.736V51.2C127.805 51.584 126.941 51.8613 126.087 52.032C125.234 52.224 124.221 52.32 123.047 52.32C121.426 52.32 119.986 51.9893 118.727 51.328C117.49 50.6667 116.519 49.6853 115.815 48.384C115.133 47.0613 114.791 45.4507 114.791 43.552C114.791 41.6747 115.101 40.064 115.719 38.72C116.359 37.376 117.245 36.3413 118.375 35.616C119.527 34.8907 120.861 34.528 122.375 34.528ZM122.343 36.832C120.999 36.832 119.933 37.2693 119.143 38.144C118.375 38.9973 117.917 40.192 117.767 41.728H126.503C126.503 40.7467 126.354 39.8933 126.055 39.168C125.757 38.4427 125.298 37.8773 124.679 37.472C124.082 37.0453 123.303 36.832 122.343 36.832ZM155.342 52H147.086V50.336L149.774 49.728V31.456L147.086 30.816V29.152H155.342V30.816L152.654 31.456V49.728L155.342 50.336V52ZM170.826 34.528C172.874 34.528 174.421 35.0293 175.466 36.032C176.511 37.0133 177.034 38.6133 177.034 40.832V52H174.25V41.024C174.25 39.6373 173.941 38.6027 173.322 37.92C172.703 37.2373 171.733 36.896 170.41 36.896C168.511 36.896 167.199 37.4293 166.474 38.496C165.749 39.5627 165.386 41.0987 165.386 43.104V52H162.57V34.848H164.842L165.258 37.184H165.418C165.802 36.5867 166.271 36.096 166.826 35.712C167.402 35.3067 168.031 35.008 168.714 34.816C169.397 34.624 170.101 34.528 170.826 34.528Z"/>
</mask>
<path d="M13.184 52L5.664 31.968H5.536C5.57867 32.3947 5.61067 32.9387 5.632 33.6C5.67467 34.2613 5.70667 34.9867 5.728 35.776C5.74933 36.544 5.76 37.3333 5.76 38.144V52H3.104V29.152H7.36L14.4 47.872H14.528L21.696 29.152H25.92V52H23.072V37.952C23.072 37.2053 23.0827 36.4693 23.104 35.744C23.1253 34.9973 23.1573 34.304 23.2 33.664C23.2427 33.0027 23.2747 32.448 23.296 32H23.168L15.552 52H13.184ZM32.2633 34.848H35.2713L38.9833 44.608C39.1966 45.184 39.3886 45.7387 39.5593 46.272C39.7513 46.8053 39.9219 47.328 40.0713 47.84C40.2206 48.3307 40.3379 48.8107 40.4233 49.28H40.5513C40.6793 48.7467 40.8819 48.0533 41.1593 47.2C41.4366 46.3253 41.7246 45.4507 42.0233 44.576L45.5113 34.848H48.5513L41.1593 54.368C40.7539 55.4347 40.2739 56.3627 39.7193 57.152C39.1859 57.9627 38.5246 58.5813 37.7353 59.008C36.9673 59.456 36.0286 59.68 34.9193 59.68C34.4073 59.68 33.9593 59.648 33.5753 59.584C33.1913 59.5413 32.8606 59.488 32.5833 59.424V57.184C32.8179 57.2267 33.0953 57.2693 33.4153 57.312C33.7566 57.3547 34.1086 57.376 34.4713 57.376C35.1326 57.376 35.6979 57.248 36.1673 56.992C36.6579 56.7573 37.0739 56.4053 37.4153 55.936C37.7566 55.488 38.0446 54.9547 38.2793 54.336L39.1753 52.064L32.2633 34.848ZM57.7278 52H54.8478V29.152H67.6158V31.68H57.7278V39.776H67.0078V42.304H57.7278V52ZM88.5935 34.848V52H86.2895L85.8735 49.728H85.7455C85.3828 50.3253 84.9135 50.816 84.3375 51.2C83.7615 51.584 83.1322 51.8613 82.4495 52.032C81.7668 52.224 81.0522 52.32 80.3055 52.32C78.9402 52.32 77.7882 52.1067 76.8495 51.68C75.9322 51.232 75.2388 50.5493 74.7695 49.632C74.3002 48.7147 74.0655 47.5307 74.0655 46.08V34.848H76.9135V45.888C76.9135 47.2533 77.2228 48.2773 77.8415 48.96C78.4602 49.6427 79.4202 49.984 80.7215 49.984C82.0015 49.984 83.0042 49.7493 83.7295 49.28C84.4762 48.7893 84.9988 48.0853 85.2975 47.168C85.6175 46.2293 85.7775 45.0987 85.7775 43.776V34.848H88.5935ZM108.407 47.264C108.407 48.3733 108.129 49.3013 107.575 50.048C107.02 50.7947 106.231 51.36 105.207 51.744C104.183 52.128 102.967 52.32 101.559 52.32C100.364 52.32 99.3294 52.224 98.4548 52.032C97.6014 51.84 96.8441 51.5733 96.1828 51.232V48.672C96.8654 49.0133 97.6868 49.3333 98.6468 49.632C99.6281 49.9093 100.62 50.048 101.623 50.048C103.052 50.048 104.087 49.824 104.727 49.376C105.367 48.9067 105.687 48.288 105.687 47.52C105.687 47.0933 105.569 46.7093 105.335 46.368C105.1 46.0267 104.673 45.6853 104.055 45.344C103.457 45.0027 102.593 44.6187 101.463 44.192C100.353 43.7653 99.4041 43.3387 98.6148 42.912C97.8254 42.4853 97.2174 41.9733 96.7908 41.376C96.3641 40.7787 96.1508 40.0107 96.1508 39.072C96.1508 37.6213 96.7374 36.5013 97.9108 35.712C99.1054 34.9227 100.663 34.528 102.583 34.528C103.628 34.528 104.599 34.6347 105.495 34.848C106.412 35.04 107.265 35.3173 108.055 35.68L107.095 37.92C106.625 37.7067 106.124 37.5253 105.591 37.376C105.079 37.2053 104.556 37.0773 104.023 36.992C103.489 36.8853 102.945 36.832 102.391 36.832C101.239 36.832 100.353 37.024 99.7348 37.408C99.1374 37.7707 98.8388 38.272 98.8388 38.912C98.8388 39.3813 98.9774 39.7867 99.2548 40.128C99.5321 40.448 99.9908 40.768 100.631 41.088C101.292 41.3867 102.167 41.7493 103.255 42.176C104.343 42.5813 105.271 42.9973 106.039 43.424C106.807 43.8507 107.393 44.3733 107.799 44.992C108.204 45.5893 108.407 46.3467 108.407 47.264ZM122.375 34.528C123.847 34.528 125.106 34.848 126.151 35.488C127.218 36.128 128.029 37.0347 128.583 38.208C129.159 39.36 129.447 40.7147 129.447 42.272V43.968H117.703C117.746 45.9093 118.237 47.392 119.175 48.416C120.135 49.4187 121.469 49.92 123.175 49.92C124.263 49.92 125.223 49.824 126.055 49.632C126.909 49.4187 127.783 49.12 128.679 48.736V51.2C127.805 51.584 126.941 51.8613 126.087 52.032C125.234 52.224 124.221 52.32 123.047 52.32C121.426 52.32 119.986 51.9893 118.727 51.328C117.49 50.6667 116.519 49.6853 115.815 48.384C115.133 47.0613 114.791 45.4507 114.791 43.552C114.791 41.6747 115.101 40.064 115.719 38.72C116.359 37.376 117.245 36.3413 118.375 35.616C119.527 34.8907 120.861 34.528 122.375 34.528ZM122.343 36.832C120.999 36.832 119.933 37.2693 119.143 38.144C118.375 38.9973 117.917 40.192 117.767 41.728H126.503C126.503 40.7467 126.354 39.8933 126.055 39.168C125.757 38.4427 125.298 37.8773 124.679 37.472C124.082 37.0453 123.303 36.832 122.343 36.832ZM155.342 52H147.086V50.336L149.774 49.728V31.456L147.086 30.816V29.152H155.342V30.816L152.654 31.456V49.728L155.342 50.336V52ZM170.826 34.528C172.874 34.528 174.421 35.0293 175.466 36.032C176.511 37.0133 177.034 38.6133 177.034 40.832V52H174.25V41.024C174.25 39.6373 173.941 38.6027 173.322 37.92C172.703 37.2373 171.733 36.896 170.41 36.896C168.511 36.896 167.199 37.4293 166.474 38.496C165.749 39.5627 165.386 41.0987 165.386 43.104V52H162.57V34.848H164.842L165.258 37.184H165.418C165.802 36.5867 166.271 36.096 166.826 35.712C167.402 35.3067 168.031 35.008 168.714 34.816C169.397 34.624 170.101 34.528 170.826 34.528Z" fill="black"/>
<path d="M13.184 52L11.7797 52.5272L12.1449 53.5H13.184V52ZM5.664 31.968L7.06831 31.4408L6.70311 30.468H5.664V31.968ZM5.536 31.968V30.468H3.87852L4.04344 32.1173L5.536 31.968ZM5.632 33.6L4.13278 33.6484L4.13356 33.6725L4.13511 33.6966L5.632 33.6ZM5.728 35.776L4.22855 35.8165L4.22858 35.8176L5.728 35.776ZM5.76 52V53.5H7.26V52H5.76ZM3.104 52H1.604V53.5H3.104V52ZM3.104 29.152V27.652H1.604V29.152H3.104ZM7.36 29.152L8.764 28.624L8.39846 27.652H7.36V29.152ZM14.4 47.872L12.996 48.4L13.3615 49.372H14.4V47.872ZM14.528 47.872V49.372H15.5598L15.9288 48.4084L14.528 47.872ZM21.696 29.152V27.652H20.6642L20.2952 28.6156L21.696 29.152ZM25.92 29.152H27.42V27.652H25.92V29.152ZM25.92 52V53.5H27.42V52H25.92ZM23.072 52H21.572V53.5H23.072V52ZM23.104 35.744L24.6034 35.7881L24.6034 35.7868L23.104 35.744ZM23.2 33.664L24.6967 33.7638L24.6969 33.7606L23.2 33.664ZM23.296 32L24.7943 32.0713L24.8691 30.5H23.296V32ZM23.168 32V30.5H22.1341L21.7662 31.4662L23.168 32ZM15.552 52V53.5H16.5859L16.9538 52.5338L15.552 52ZM14.5883 51.4728L7.06831 31.4408L4.25969 32.4952L11.7797 52.5272L14.5883 51.4728ZM5.664 30.468H5.536V33.468H5.664V30.468ZM4.04344 32.1173C4.08148 32.4976 4.11202 33.0048 4.13278 33.6484L7.13122 33.5516C7.10931 32.8726 7.07586 32.2918 7.02856 31.8187L4.04344 32.1173ZM4.13511 33.6966C4.17637 34.3361 4.20763 35.0425 4.22855 35.8165L7.22745 35.7355C7.20571 34.9309 7.17296 34.1865 7.12889 33.5034L4.13511 33.6966ZM4.22858 35.8176C4.24951 36.571 4.26 37.3465 4.26 38.144H7.26C7.26 37.3202 7.24916 36.517 7.22742 35.7343L4.22858 35.8176ZM4.26 38.144V52H7.26V38.144H4.26ZM5.76 50.5H3.104V53.5H5.76V50.5ZM4.604 52V29.152H1.604V52H4.604ZM3.104 30.652H7.36V27.652H3.104V30.652ZM5.956 29.68L12.996 48.4L15.804 47.344L8.764 28.624L5.956 29.68ZM14.4 49.372H14.528V46.372H14.4V49.372ZM15.9288 48.4084L23.0968 29.6884L20.2952 28.6156L13.1272 47.3356L15.9288 48.4084ZM21.696 30.652H25.92V27.652H21.696V30.652ZM24.42 29.152V52H27.42V29.152H24.42ZM25.92 50.5H23.072V53.5H25.92V50.5ZM24.572 52V37.952H21.572V52H24.572ZM24.572 37.952C24.572 37.2196 24.5825 36.4983 24.6034 35.7881L21.6047 35.6999C21.5829 36.4403 21.572 37.1911 21.572 37.952H24.572ZM24.6034 35.7868C24.6243 35.0562 24.6555 34.382 24.6967 33.7638L21.7033 33.5642C21.6592 34.226 21.6264 34.9385 21.6046 35.7012L24.6034 35.7868ZM24.6969 33.7606C24.7399 33.0944 24.7724 32.5307 24.7943 32.0713L21.7977 31.9287C21.7769 32.3653 21.7455 32.9109 21.7031 33.5674L24.6969 33.7606ZM23.296 30.5H23.168V33.5H23.296V30.5ZM21.7662 31.4662L14.1502 51.4662L16.9538 52.5338L24.5698 32.5338L21.7662 31.4662ZM15.552 50.5H13.184V53.5H15.552V50.5ZM32.2633 34.848V33.348H30.0446L30.8713 35.4069L32.2633 34.848ZM35.2713 34.848L36.6733 34.3148L36.3056 33.348H35.2713V34.848ZM38.9832 44.608L40.3899 44.087L40.3853 44.0748L38.9832 44.608ZM39.5592 46.272L38.1306 46.7292L38.1388 46.7548L38.1479 46.7801L39.5592 46.272ZM40.0713 47.84L38.6313 48.26L38.6337 48.2684L38.6362 48.2767L40.0713 47.84ZM40.4233 49.28L38.9474 49.5483L39.1714 50.78H40.4233V49.28ZM40.5513 49.28V50.78H41.7338L42.0098 49.6301L40.5513 49.28ZM41.1593 47.2L42.5858 47.6636L42.5891 47.6534L41.1593 47.2ZM42.0233 44.576L40.6113 44.0697L40.6074 44.0805L40.6037 44.0913L42.0233 44.576ZM45.5113 34.848V33.348H44.4556L44.0993 34.3417L45.5113 34.848ZM48.5513 34.848L49.954 35.3792L50.7232 33.348H48.5513V34.848ZM41.1593 54.368L42.5614 54.9008L42.562 54.8992L41.1593 54.368ZM39.7192 57.152L38.492 56.2896L38.4788 56.3084L38.4661 56.3276L39.7192 57.152ZM37.7353 59.008L37.022 57.6884L37.0005 57.7L36.9794 57.7123L37.7353 59.008ZM33.5753 59.584L33.8218 58.1044L33.7815 58.0977L33.7409 58.0932L33.5753 59.584ZM32.5833 59.424H31.0833V60.6173L32.246 60.8856L32.5833 59.424ZM32.5833 57.184L32.8516 55.7082L31.0833 55.3867V57.184H32.5833ZM33.4153 57.312L33.217 58.7989L33.2292 58.8004L33.4153 57.312ZM36.1673 56.992L35.5201 55.6388L35.484 55.656L35.449 55.6752L36.1673 56.992ZM37.4153 55.936L36.2221 55.0269L36.212 55.0402L36.2021 55.0537L37.4153 55.936ZM38.2793 54.336L36.8838 53.7857L36.8802 53.7948L36.8768 53.804L38.2793 54.336ZM39.1753 52.064L40.5707 52.6143L40.7896 52.059L40.5672 51.5051L39.1753 52.064ZM32.2633 36.348H35.2713V33.348H32.2633V36.348ZM33.8692 35.3812L37.5812 45.1412L40.3853 44.0748L36.6733 34.3148L33.8692 35.3812ZM37.5766 45.129C37.7829 45.6859 37.9674 46.2192 38.1306 46.7292L40.9879 45.8148C40.8097 45.2581 40.6103 44.6821 40.3899 44.087L37.5766 45.129ZM38.1479 46.7801C38.3301 47.2862 38.4911 47.7794 38.6313 48.26L41.5112 47.42C41.3528 46.8766 41.1724 46.3245 40.9706 45.7639L38.1479 46.7801ZM38.6362 48.2767C38.77 48.7162 38.8732 49.1399 38.9474 49.5483L41.8991 49.0117C41.8026 48.4814 41.6712 47.9451 41.5063 47.4033L38.6362 48.2767ZM40.4233 50.78H40.5513V47.78H40.4233V50.78ZM42.0098 49.6301C42.1247 49.1512 42.314 48.4998 42.5858 47.6636L39.7327 46.7364C39.4498 47.6069 39.2338 48.3421 39.0927 48.9299L42.0098 49.6301ZM42.5891 47.6534C42.8631 46.7893 43.1476 45.925 43.4428 45.0607L40.6037 44.0913C40.3015 44.9763 40.0101 45.8614 39.7294 46.7466L42.5891 47.6534ZM43.4352 45.0823L46.9232 35.3543L44.0993 34.3417L40.6113 44.0697L43.4352 45.0823ZM45.5113 36.348H48.5513V33.348H45.5113V36.348ZM47.1485 34.3168L39.7565 53.8368L42.562 54.8992L49.954 35.3792L47.1485 34.3168ZM39.7571 53.8352C39.3883 54.8057 38.9632 55.619 38.492 56.2896L40.9465 58.0144C41.5846 57.1063 42.1196 56.0636 42.5614 54.9008L39.7571 53.8352ZM38.4661 56.3276C38.0577 56.9484 37.5757 57.3891 37.022 57.6884L38.4485 60.3276C39.4735 59.7735 40.3142 58.9769 40.9724 57.9764L38.4661 56.3276ZM36.9794 57.7123C36.4912 57.9971 35.8281 58.18 34.9193 58.18V61.18C36.2291 61.18 37.4433 60.9149 38.4911 60.3037L36.9794 57.7123ZM34.9193 58.18C34.4657 58.18 34.1036 58.1514 33.8218 58.1044L33.3287 61.0636C33.8149 61.1446 34.3488 61.18 34.9193 61.18V58.18ZM33.7409 58.0932C33.3957 58.0548 33.1254 58.0097 32.9205 57.9624L32.246 60.8856C32.5958 60.9663 32.9868 61.0278 33.4096 61.0748L33.7409 58.0932ZM34.0833 59.424V57.184H31.0833V59.424H34.0833ZM32.3149 58.6598C32.5793 58.7079 32.8811 58.7541 33.217 58.7988L33.6135 55.8252C33.3094 55.7846 33.0565 55.7455 32.8516 55.7082L32.3149 58.6598ZM33.2292 58.8004C33.6355 58.8512 34.0497 58.876 34.4713 58.876V55.876C34.1674 55.876 33.8777 55.8581 33.6013 55.8236L33.2292 58.8004ZM34.4713 58.876C35.3249 58.876 36.1495 58.7103 36.8855 58.3088L35.449 55.6752C35.2463 55.7857 34.9403 55.876 34.4713 55.876V58.876ZM36.8144 58.3452C37.545 57.9958 38.1506 57.4752 38.6284 56.8183L36.2021 55.0537C35.9973 55.3354 35.7709 55.5188 35.5201 55.6388L36.8144 58.3452ZM38.6084 56.8451C39.051 56.2641 39.4045 55.5988 39.6817 54.868L36.8768 53.804C36.6846 54.3105 36.4621 54.7119 36.2221 55.0269L38.6084 56.8451ZM39.6747 54.8863L40.5707 52.6143L37.7798 51.5137L36.8838 53.7857L39.6747 54.8863ZM40.5672 51.5051L33.6553 34.2891L30.8713 35.4069L37.7833 52.6229L40.5672 51.5051ZM57.7278 52V53.5H59.2278V52H57.7278ZM54.8478 52H53.3478V53.5H54.8478V52ZM54.8478 29.152V27.652H53.3478V29.152H54.8478ZM67.6158 29.152H69.1158V27.652H67.6158V29.152ZM67.6158 31.68V33.18H69.1158V31.68H67.6158ZM57.7278 31.68V30.18H56.2278V31.68H57.7278ZM57.7278 39.776H56.2278V41.276H57.7278V39.776ZM67.0078 39.776H68.5078V38.276H67.0078V39.776ZM67.0078 42.304V43.804H68.5078V42.304H67.0078ZM57.7278 42.304V40.804H56.2278V42.304H57.7278ZM57.7278 50.5H54.8478V53.5H57.7278V50.5ZM56.3478 52V29.152H53.3478V52H56.3478ZM54.8478 30.652H67.6158V27.652H54.8478V30.652ZM66.1158 29.152V31.68H69.1158V29.152H66.1158ZM67.6158 30.18H57.7278V33.18H67.6158V30.18ZM56.2278 31.68V39.776H59.2278V31.68H56.2278ZM57.7278 41.276H67.0078V38.276H57.7278V41.276ZM65.5078 39.776V42.304H68.5078V39.776H65.5078ZM67.0078 40.804H57.7278V43.804H67.0078V40.804ZM56.2278 42.304V52H59.2278V42.304H56.2278ZM88.5935 34.848H90.0935V33.348H88.5935V34.848ZM88.5935 52V53.5H90.0935V52H88.5935ZM86.2895 52L84.814 52.2702L85.0392 53.5H86.2895V52ZM85.8735 49.728L87.349 49.4578L87.1238 48.228H85.8735V49.728ZM85.7455 49.728V48.228H84.9014L84.4633 48.9495L85.7455 49.728ZM84.3375 51.2L83.5054 49.9519L84.3375 51.2ZM82.4495 52.032L82.0857 50.5768L82.0645 50.5821L82.0434 50.588L82.4495 52.032ZM76.8495 51.68L76.1912 53.0279L76.2099 53.037L76.2288 53.0456L76.8495 51.68ZM74.7695 49.632L73.4341 50.3152L74.7695 49.632ZM74.0655 34.848V33.348H72.5655V34.848H74.0655ZM76.9135 34.848H78.4135V33.348H76.9135V34.848ZM77.8415 48.96L78.953 47.9527L77.8415 48.96ZM83.7295 49.28L84.5444 50.5394L84.5533 50.5336L83.7295 49.28ZM85.2975 47.168L83.8777 46.684L83.8744 46.6938L83.8712 46.7036L85.2975 47.168ZM85.7775 34.848V33.348H84.2775V34.848H85.7775ZM87.0935 34.848V52H90.0935V34.848H87.0935ZM88.5935 50.5H86.2895V53.5H88.5935V50.5ZM87.765 51.7298L87.349 49.4578L84.398 49.9982L84.814 52.2702L87.765 51.7298ZM85.8735 48.228H85.7455V51.228H85.8735V48.228ZM84.4633 48.9495C84.2134 49.3611 83.8971 49.6908 83.5054 49.9519L85.1695 52.4481C85.9299 51.9412 86.5522 51.2895 87.0277 50.5065L84.4633 48.9495ZM83.5054 49.9519C83.0749 50.239 82.6044 50.4471 82.0857 50.5768L82.8133 53.4872C83.66 53.2755 84.4481 52.929 85.1695 52.4481L83.5054 49.9519ZM82.0434 50.588C81.4997 50.7409 80.9221 50.82 80.3055 50.82V53.82C81.1822 53.82 82.034 53.7071 82.8556 53.476L82.0434 50.588ZM80.3055 50.82C79.0882 50.82 78.1616 50.6287 77.4702 50.3144L76.2288 53.0456C77.4147 53.5846 78.7921 53.82 80.3055 53.82V50.82ZM77.5078 50.3321C76.885 50.028 76.4278 49.5801 76.1049 48.9488L73.4341 50.3152C74.0498 51.5186 74.9793 52.436 76.1912 53.0279L77.5078 50.3321ZM76.1049 48.9488C75.7787 48.3113 75.5655 47.3841 75.5655 46.08H72.5655C72.5655 47.6772 72.8216 49.118 73.4341 50.3152L76.1049 48.9488ZM75.5655 46.08V34.848H72.5655V46.08H75.5655ZM74.0655 36.348H76.9135V33.348H74.0655V36.348ZM75.4135 34.848V45.888H78.4135V34.848H75.4135ZM75.4135 45.888C75.4135 47.45 75.7642 48.9016 76.73 49.9673L78.953 47.9527C78.6814 47.6531 78.4135 47.0566 78.4135 45.888H75.4135ZM76.73 49.9673C77.7346 51.0758 79.1762 51.484 80.7215 51.484V48.484C79.6641 48.484 79.1857 48.2096 78.953 47.9527L76.73 49.9673ZM80.7215 51.484C82.1598 51.484 83.4858 51.2243 84.5444 50.5394L82.9146 48.0206C82.5225 48.2744 81.8432 48.484 80.7215 48.484V51.484ZM84.5533 50.5336C85.6079 49.8405 86.3287 48.8459 86.7238 47.6324L83.8712 46.7036C83.669 47.3247 83.3444 47.7382 82.9057 48.0264L84.5533 50.5336ZM86.7173 47.652C87.1048 46.5153 87.2775 45.2118 87.2775 43.776H84.2775C84.2775 44.9855 84.1302 45.9434 83.8777 46.684L86.7173 47.652ZM87.2775 43.776V34.848H84.2775V43.776H87.2775ZM85.7775 36.348H88.5935V33.348H85.7775V36.348ZM107.575 50.048L106.371 49.1535L107.575 50.048ZM105.207 51.744L104.68 50.3395L105.207 51.744ZM98.4548 52.032L98.1255 53.4954L98.1331 53.4971L98.4548 52.032ZM96.1828 51.232H94.6828V52.1458L95.4948 52.5649L96.1828 51.232ZM96.1828 48.672L96.8536 47.3304L94.6828 46.2449V48.672H96.1828ZM98.6468 49.632L98.2012 51.0643L98.2199 51.0701L98.2388 51.0755L98.6468 49.632ZM104.727 49.376L105.587 50.6048L105.6 50.5954L105.614 50.5856L104.727 49.376ZM105.335 46.368L106.571 45.5182V45.5182L105.335 46.368ZM104.055 45.344L103.311 46.6464L103.32 46.6519L103.33 46.6574L104.055 45.344ZM101.463 44.192L100.924 45.592L100.933 45.5954L101.463 44.192ZM96.7908 41.376L95.5702 42.2479L96.7908 41.376ZM97.9108 35.712L97.0838 34.4605L97.0735 34.4674L97.9108 35.712ZM105.495 34.848L105.147 36.3072L105.167 36.312L105.187 36.3162L105.495 34.848ZM108.055 35.68L109.433 36.2709L110.009 34.9273L108.681 34.317L108.055 35.68ZM107.095 37.92L106.474 39.2855L107.87 39.9199L108.473 38.5109L107.095 37.92ZM105.591 37.376L105.116 38.799L105.151 38.8106L105.186 38.8204L105.591 37.376ZM104.023 36.992L103.729 38.4629L103.757 38.4686L103.786 38.4732L104.023 36.992ZM99.7348 37.408L100.513 38.6902L100.52 38.6864L100.526 38.6825L99.7348 37.408ZM99.2548 40.128L98.0906 41.0739L98.1056 41.0924L98.1212 41.1104L99.2548 40.128ZM100.631 41.088L99.9599 42.4296L99.9864 42.4429L100.013 42.4551L100.631 41.088ZM103.255 42.176L102.707 43.5725L102.719 43.5771L102.731 43.5816L103.255 42.176ZM106.039 43.424L105.31 44.7352L106.039 43.424ZM107.799 44.992L106.544 45.814L106.551 45.8242L106.558 45.8343L107.799 44.992ZM106.907 47.264C106.907 48.115 106.698 48.7125 106.371 49.1535L108.779 50.9425C109.561 49.8902 109.907 48.6316 109.907 47.264H106.907ZM106.371 49.1535C106.016 49.6303 105.482 50.0387 104.68 50.3395L105.733 53.1485C106.979 52.6813 108.024 51.959 108.779 50.9425L106.371 49.1535ZM104.68 50.3395C103.865 50.6451 102.836 50.82 101.559 50.82V53.82C103.097 53.82 104.5 53.6109 105.733 53.1485L104.68 50.3395ZM101.559 50.82C100.439 50.82 99.5171 50.7295 98.7764 50.5669L98.1331 53.4971C99.1418 53.7185 100.289 53.82 101.559 53.82V50.82ZM98.784 50.5686C98.0342 50.3999 97.4008 50.1726 96.8707 49.8991L95.4948 52.5649C96.2874 52.974 97.1687 53.2801 98.1255 53.4954L98.784 50.5686ZM97.6828 51.232V48.672H94.6828V51.232H97.6828ZM95.5119 50.0136C96.2857 50.4005 97.1865 50.7486 98.2012 51.0643L99.0924 48.1997C98.187 47.918 97.4452 47.6261 96.8536 47.3304L95.5119 50.0136ZM98.2388 51.0755C99.3506 51.3897 100.48 51.548 101.623 51.548V48.548C100.76 48.548 99.9056 48.429 99.0547 48.1885L98.2388 51.0755ZM101.623 51.548C103.139 51.548 104.56 51.3238 105.587 50.6048L103.867 48.1472C103.614 48.3242 102.966 48.548 101.623 48.548V51.548ZM105.614 50.5856C106.624 49.8448 107.187 48.7843 107.187 47.52H104.187C104.187 47.7917 104.11 47.9685 103.84 48.1664L105.614 50.5856ZM107.187 47.52C107.187 46.7996 106.983 46.1175 106.571 45.5182L104.099 47.2178C104.156 47.3012 104.187 47.3871 104.187 47.52H107.187ZM106.571 45.5182C106.142 44.894 105.477 44.4156 104.779 44.0306L103.33 46.6574C103.87 46.9551 104.058 47.1593 104.099 47.2178L106.571 45.5182ZM104.799 44.0416C104.1 43.6423 103.151 43.2257 101.992 42.7886L100.933 45.5954C102.036 46.0116 102.815 46.363 103.311 46.6464L104.799 44.0416ZM102.001 42.792C100.934 42.3815 100.046 41.9806 99.328 41.5924L97.9015 44.2316C98.762 44.6967 99.773 45.1492 100.924 45.592L102.001 42.792ZM99.328 41.5924C98.6958 41.2507 98.279 40.8788 98.0114 40.5041L95.5702 42.2479C96.1559 43.0679 96.9551 43.72 97.9015 44.2316L99.328 41.5924ZM98.0114 40.5041C97.8113 40.2241 97.6508 39.7853 97.6508 39.072H94.6508C94.6508 40.236 94.9169 41.3333 95.5702 42.2479L98.0114 40.5041ZM97.6508 39.072C97.6508 38.1052 98.0017 37.4587 98.748 36.9566L97.0735 34.4674C95.4732 35.544 94.6508 37.1375 94.6508 39.072H97.6508ZM98.7376 36.9635C99.6164 36.3829 100.859 36.028 102.583 36.028V33.028C100.467 33.028 98.5945 33.4624 97.0839 34.4605L98.7376 36.9635ZM102.583 36.028C103.526 36.028 104.379 36.1243 105.147 36.3072L105.842 33.3888C104.818 33.145 103.73 33.028 102.583 33.028V36.028ZM105.187 36.3162C106.003 36.487 106.749 36.7308 107.429 37.043L108.681 34.317C107.782 33.9039 106.821 33.593 105.802 33.3798L105.187 36.3162ZM106.676 35.0891L105.716 37.3291L108.473 38.5109L109.433 36.2709L106.676 35.0891ZM107.715 36.5545C107.171 36.3071 106.597 36.1001 105.995 35.9316L105.186 38.8204C105.651 38.9506 106.08 39.1063 106.474 39.2855L107.715 36.5545ZM106.065 35.953C105.476 35.7565 104.874 35.6091 104.26 35.5108L103.786 38.4732C104.239 38.5456 104.682 38.6542 105.116 38.799L106.065 35.953ZM104.317 35.5211C103.685 35.3947 103.042 35.332 102.391 35.332V38.332C102.849 38.332 103.294 38.376 103.729 38.4629L104.317 35.5211ZM102.391 35.332C101.108 35.332 99.9005 35.5397 98.9437 36.1335L100.526 38.6825C100.806 38.5083 101.37 38.332 102.391 38.332V35.332ZM98.9563 36.1258C97.9605 36.7304 97.3388 37.6924 97.3388 38.912H100.339C100.339 38.8694 100.344 38.8464 100.346 38.8377C100.348 38.8299 100.35 38.8267 100.351 38.8237C100.353 38.8215 100.383 38.7693 100.513 38.6902L98.9563 36.1258ZM97.3388 38.912C97.3388 39.701 97.5808 40.4465 98.0906 41.0739L100.419 39.1821C100.374 39.1268 100.339 39.0617 100.339 38.912H97.3388ZM98.1212 41.1104C98.5871 41.6479 99.2485 42.0739 99.9599 42.4296L101.302 39.7464C100.733 39.4621 100.477 39.2481 100.388 39.1456L98.1212 41.1104ZM100.013 42.4551C100.707 42.7684 101.608 43.1414 102.707 43.5725L103.802 40.7795C102.726 40.3573 101.877 40.0049 101.248 39.7209L100.013 42.4551ZM102.731 43.5816C103.77 43.9685 104.625 44.3546 105.31 44.7352L106.767 42.1128C105.916 41.6401 104.916 41.1942 103.778 40.7704L102.731 43.5816ZM105.31 44.7352C105.906 45.066 106.295 45.4336 106.544 45.814L109.053 44.17C108.492 43.3131 107.708 42.6354 106.767 42.1128L105.31 44.7352ZM106.558 45.8343C106.754 46.1235 106.907 46.5658 106.907 47.264H109.907C109.907 46.1275 109.654 45.0552 109.04 44.1497L106.558 45.8343ZM126.151 35.488L125.368 36.7673L125.38 36.7742L126.151 35.488ZM128.583 38.208L127.227 38.8491L127.234 38.864L127.242 38.8788L128.583 38.208ZM129.447 43.968V45.468H130.947V43.968H129.447ZM117.703 43.968V42.468H116.17L116.204 44.001L117.703 43.968ZM119.175 48.416L118.07 49.4296L118.081 49.4416L118.092 49.4534L119.175 48.416ZM126.055 49.632L126.393 51.0936L126.406 51.0905L126.419 51.0872L126.055 49.632ZM128.679 48.736H130.179V46.4612L128.088 47.3573L128.679 48.736ZM128.679 51.2L129.282 52.5735L130.179 52.1797V51.2H128.679ZM126.087 52.032L125.793 50.5611L125.775 50.5646L125.758 50.5686L126.087 52.032ZM118.727 51.328L118.02 52.6509L118.03 52.6559L118.727 51.328ZM115.815 48.384L114.482 49.072L114.489 49.0849L114.496 49.0977L115.815 48.384ZM115.719 38.72L114.365 38.0751L114.361 38.0839L114.357 38.0928L115.719 38.72ZM118.375 35.616L117.576 34.3466L117.565 34.3535L118.375 35.616ZM119.143 38.144L118.03 37.1391L118.028 37.1406L119.143 38.144ZM117.767 41.728L116.274 41.5829L116.114 43.228H117.767V41.728ZM126.503 41.728V43.228H128.003V41.728H126.503ZM126.055 39.168L124.668 39.7391L126.055 39.168ZM124.679 37.472L123.807 38.6926L123.832 38.7101L123.857 38.7267L124.679 37.472ZM122.375 36.028C123.627 36.028 124.602 36.2982 125.368 36.7673L126.934 34.2087C125.61 33.3978 124.068 33.028 122.375 33.028V36.028ZM125.38 36.7742C126.18 37.2548 126.793 37.9315 127.227 38.8491L129.939 37.5669C129.264 36.1378 128.255 35.0012 126.923 34.2018L125.38 36.7742ZM127.242 38.8788C127.694 39.7834 127.947 40.8994 127.947 42.272H130.947C130.947 40.5299 130.625 38.9366 129.925 37.5372L127.242 38.8788ZM127.947 42.272V43.968H130.947V42.272H127.947ZM129.447 42.468H117.703V45.468H129.447V42.468ZM116.204 44.001C116.251 46.1619 116.802 48.0473 118.07 49.4296L120.281 47.4024C119.671 46.7367 119.241 45.6567 119.203 43.935L116.204 44.001ZM118.092 49.4534C119.397 50.817 121.16 51.42 123.175 51.42V48.42C121.777 48.42 120.873 48.0204 120.259 47.3786L118.092 49.4534ZM123.175 51.42C124.347 51.42 125.425 51.317 126.393 51.0936L125.718 48.1704C125.022 48.331 124.179 48.42 123.175 48.42V51.42ZM126.419 51.0872C127.358 50.8525 128.308 50.5269 129.27 50.1147L128.088 47.3573C127.258 47.7131 126.459 47.9848 125.691 48.1768L126.419 51.0872ZM127.179 48.736V51.2H130.179V48.736H127.179ZM128.076 49.8265C127.291 50.1712 126.531 50.4136 125.793 50.5611L126.381 53.5029C127.351 53.309 128.318 52.9968 129.282 52.5735L128.076 49.8265ZM125.758 50.5686C125.042 50.7296 124.145 50.82 123.047 50.82V53.82C124.296 53.82 125.426 53.7184 126.417 53.4954L125.758 50.5686ZM123.047 50.82C121.635 50.82 120.44 50.5334 119.425 50.0001L118.03 52.6559C119.532 53.4452 121.217 53.82 123.047 53.82V50.82ZM119.434 50.0051C118.471 49.4902 117.707 48.7278 117.135 47.6703L114.496 49.0977C115.332 50.6429 116.509 51.8432 118.02 52.6509L119.434 50.0051ZM117.148 47.696C116.601 46.6366 116.291 45.2755 116.291 43.552H113.291C113.291 45.6259 113.664 47.4861 114.482 49.072L117.148 47.696ZM116.291 43.552C116.291 41.8349 116.575 40.4491 117.082 39.3472L114.357 38.0928C113.627 39.6789 113.291 41.5144 113.291 43.552H116.291ZM117.074 39.3649C117.607 38.2453 118.315 37.4368 119.185 36.8785L117.565 34.3535C116.174 35.2459 115.112 36.5067 114.365 38.0751L117.074 39.3649ZM119.174 36.8853C120.061 36.3273 121.111 36.028 122.375 36.028V33.028C120.611 33.028 118.994 33.454 117.576 34.3466L119.174 36.8853ZM122.343 35.332C120.641 35.332 119.145 35.9033 118.03 37.1391L120.257 39.1489C120.72 38.6354 121.358 38.332 122.343 38.332V35.332ZM118.028 37.1406C116.983 38.3022 116.444 39.8363 116.274 41.5829L119.26 41.8731C119.389 40.5477 119.768 39.6924 120.258 39.1474L118.028 37.1406ZM117.767 43.228H126.503V40.228H117.767V43.228ZM128.003 41.728C128.003 40.5982 127.832 39.5426 127.442 38.5969L124.668 39.7391C124.876 40.244 125.003 40.8951 125.003 41.728H128.003ZM127.442 38.5969C127.036 37.6098 126.389 36.7986 125.501 36.2173L123.857 38.7267C124.207 38.956 124.477 39.2755 124.668 39.7391L127.442 38.5969ZM125.551 36.2514C124.631 35.5944 123.52 35.332 122.343 35.332V38.332C123.086 38.332 123.533 38.4963 123.807 38.6926L125.551 36.2514ZM155.342 52V53.5H156.842V52H155.342ZM147.086 52H145.586V53.5H147.086V52ZM147.086 50.336L146.755 48.873L145.586 49.1374V50.336H147.086ZM149.774 49.728L150.105 51.191L151.274 50.9266V49.728H149.774ZM149.774 31.456H151.274V30.2712L150.122 29.9968L149.774 31.456ZM147.086 30.816H145.586V32.0008L146.739 32.2752L147.086 30.816ZM147.086 29.152V27.652H145.586V29.152H147.086ZM155.342 29.152H156.842V27.652H155.342V29.152ZM155.342 30.816L155.69 32.2752L156.842 32.0008V30.816H155.342ZM152.654 31.456L152.307 29.9968L151.154 30.2712V31.456H152.654ZM152.654 49.728H151.154V50.9266L152.323 51.191L152.654 49.728ZM155.342 50.336H156.842V49.1374L155.673 48.873L155.342 50.336ZM155.342 50.5H147.086V53.5H155.342V50.5ZM148.586 52V50.336H145.586V52H148.586ZM147.417 51.799L150.105 51.191L149.443 48.265L146.755 48.873L147.417 51.799ZM151.274 49.728V31.456H148.274V49.728H151.274ZM150.122 29.9968L147.434 29.3568L146.739 32.2752L149.427 32.9152L150.122 29.9968ZM148.586 30.816V29.152H145.586V30.816H148.586ZM147.086 30.652H155.342V27.652H147.086V30.652ZM153.842 29.152V30.816H156.842V29.152H153.842ZM154.995 29.3568L152.307 29.9968L153.002 32.9152L155.69 32.2752L154.995 29.3568ZM151.154 31.456V49.728H154.154V31.456H151.154ZM152.323 51.191L155.011 51.799L155.673 48.873L152.985 48.265L152.323 51.191ZM153.842 50.336V52H156.842V50.336H153.842ZM175.466 36.032L174.428 37.1145L174.433 37.1201L174.439 37.1256L175.466 36.032ZM177.034 52V53.5H178.534V52H177.034ZM174.25 52H172.75V53.5H174.25V52ZM173.322 37.92L174.433 36.9127L173.322 37.92ZM166.474 38.496L167.714 39.3395V39.3395L166.474 38.496ZM165.386 52V53.5H166.886V52H165.386ZM162.57 52H161.07V53.5H162.57V52ZM162.57 34.848V33.348H161.07V34.848H162.57ZM164.842 34.848L166.319 34.585L166.098 33.348H164.842V34.848ZM165.258 37.184L163.781 37.447L164.002 38.684H165.258V37.184ZM165.418 37.184V38.684H166.237L166.68 37.9951L165.418 37.184ZM166.826 35.712L167.68 36.9453L167.689 36.9387L166.826 35.712ZM170.826 36.028C172.648 36.028 173.759 36.4736 174.428 37.1145L176.504 34.9495C175.082 33.5851 173.1 33.028 170.826 33.028V36.028ZM174.439 37.1256C175.051 37.7001 175.534 38.8041 175.534 40.832H178.534C178.534 38.4225 177.971 36.3266 176.493 34.9384L174.439 37.1256ZM175.534 40.832V52H178.534V40.832H175.534ZM177.034 50.5H174.25V53.5H177.034V50.5ZM175.75 52V41.024H172.75V52H175.75ZM175.75 41.024C175.75 39.4479 175.403 37.9821 174.433 36.9127L172.211 38.9273C172.479 39.2233 172.75 39.8267 172.75 41.024H175.75ZM174.433 36.9127C173.425 35.7996 171.968 35.396 170.41 35.396V38.396C171.498 38.396 171.982 38.6751 172.211 38.9273L174.433 36.9127ZM170.41 35.396C168.264 35.396 166.354 36.0049 165.234 37.6525L167.714 39.3395C168.045 38.8537 168.759 38.396 170.41 38.396V35.396ZM165.234 37.6525C164.269 39.0708 163.886 40.9525 163.886 43.104H166.886C166.886 41.2448 167.228 40.0545 167.714 39.3395L165.234 37.6525ZM163.886 43.104V52H166.886V43.104H163.886ZM165.386 50.5H162.57V53.5H165.386V50.5ZM164.07 52V34.848H161.07V52H164.07ZM162.57 36.348H164.842V33.348H162.57V36.348ZM163.365 35.111L163.781 37.447L166.735 36.921L166.319 34.585L163.365 35.111ZM165.258 38.684H165.418V35.684H165.258V38.684ZM166.68 37.9951C166.963 37.5551 167.296 37.211 167.68 36.9453L165.972 34.4787C165.247 34.981 164.641 35.6182 164.156 36.3729L166.68 37.9951ZM167.689 36.9387C168.125 36.6319 168.6 36.4063 169.12 36.26L168.308 33.372C167.463 33.6097 166.679 33.9815 165.963 34.4853L167.689 36.9387ZM169.12 36.26C169.668 36.106 170.235 36.028 170.826 36.028V33.028C169.967 33.028 169.126 33.142 168.308 33.372L169.12 36.26Z" fill="black" mask="url(#path-1-outside-1_118_60)"/>
<circle cx="137.5" cy="52.5" r="2.5" fill="#E73E11"/>
</svg>
